<?xml version="1.0" encoding="UTF-8" standalone="no"?>
<!-- Generator: Adobe Illustrator 16.0.0, SVG Export Plug-In . SVG Version: 6.00 Build 0)  -->

<svg
   xmlns:dc="http://purl.org/dc/elements/1.1/"
   xmlns:cc="http://creativecommons.org/ns#"
   xmlns:rdf="http://www.w3.org/1999/02/22-rdf-syntax-ns#"
   xmlns:svg="http://www.w3.org/2000/svg"
   xmlns="http://www.w3.org/2000/svg"
   xmlns:sodipodi="http://sodipodi.sourceforge.net/DTD/sodipodi-0.dtd"
   xmlns:inkscape="http://www.inkscape.org/namespaces/inkscape"
   version="1.1"
   id="Layer_1"
   x="0px"
   y="0px"
   width="512px"
   height="512px"
   viewBox="0 0 512 512"
   enable-background="new 0 0 512 512"
   xml:space="preserve"
   inkscape:version="0.91 r13725"
   sodipodi:docname="gears.svg"><metadata
     id="metadata11"><rdf:RDF><cc:Work
         rdf:about=""><dc:format>image/svg+xml</dc:format><dc:type
           rdf:resource="http://purl.org/dc/dcmitype/StillImage" /></cc:Work></rdf:RDF></metadata><defs
     id="defs9" /><sodipodi:namedview
     pagecolor="#ffffff"
     bordercolor="#666666"
     borderopacity="1"
     objecttolerance="10"
     gridtolerance="10"
     guidetolerance="10"
     inkscape:pageopacity="0"
     inkscape:pageshadow="2"
     inkscape:window-width="1920"
     inkscape:window-height="1023"
     id="namedview7"
     showgrid="false"
     inkscape:zoom="0.921875"
     inkscape:cx="292.99941"
     inkscape:cy="216.5896"
     inkscape:window-x="0"
     inkscape:window-y="33"
     inkscape:window-maximized="1"
     inkscape:current-layer="Layer_1" /><path
     d="m 369.26661,345.03472 0,-44.28844 -40.19307,-14.76075 c -3.50059,-13.52036 -8.19697,-26.28856 -15.13744,-38.02579 l 0.40272,-0.0521 19.12999,-39.84238 -31.22657,-31.31207 -39.79901,18.95774 -0.0385,0.0557 c -11.73722,-6.94047 -24.48312,-11.34565 -38.00595,-14.84253 l -14.75209,-40.59083 -44.28597,0 -14.76198,40.59331 c -13.52285,3.49564 -26.28608,8.394 -38.02332,15.33943 l -0.0595,-0.30731 -39.837424,-19.08167 -31.312074,31.25012 18.957751,39.80644 0.06196,0.0483 c -6.945412,11.73608 -13.827648,24.49065 -17.32329,38.01101 L 0,300.74628 l 0,44.28844 43.064169,14.762 c 3.495642,13.52532 9.633149,26.2836 16.579822,38.0233 l 0.308549,0.0558 -18.769401,39.83494 31.403771,31.31827 39.88575,-18.95651 0.0806,-0.057 c 11.73971,6.93552 24.51286,13.41503 38.03571,16.91687 L 165.3608,509.6 l 44.28597,0 14.76448,-42.66641 c 13.52284,-3.50183 26.28113,-9.43487 38.01835,-16.37536 l 0.062,-0.21685 39.83991,18.82517 31.30959,-31.3827 -18.95775,-39.87832 -0.057,-0.0756 c 6.94047,-11.73846 10.94789,-24.50543 14.44848,-38.02703 l 40.19183,-14.76819 z m -181.76096,51.66759 c -40.76431,0 -73.81119,-33.03821 -73.81119,-73.80995 0,-40.76307 33.04688,-73.81367 73.81119,-73.81367 40.76926,0 73.81119,33.0506 73.81119,73.81367 0,40.77174 -33.04193,73.80995 -73.81119,73.80995 z"
     id="path3"
     inkscape:connector-curvature="0"
     style="fill:#00d500;fill-opacity:1" /><path
     d="m 510.82459,77.434156 -9.68396,-23.377798 -25.06799,1.25402 C 471.27341,48.933714 465.68236,43.360019 459.44696,38.680989 l 0.0471,-0.05328 1.3135,-25.177043 -23.36913,-9.6926288 -16.88961,18.7198348 -0.0102,0.03842 c -7.71867,-1.09417 -15.63683,-1.156127 -23.52897,-0.03098 l -16.88838,-18.7384221 -23.37904,9.6839551 1.30731,25.179522 c -6.3841,4.799226 -11.9293,10.436118 -16.60833,16.678954 l -0.0471,-0.02603 -25.1758,-1.294912 -9.66413,23.361689 18.71489,16.872259 0.0471,0.02605 c -0.90582,7.230433 -1.28253,15.685143 -0.16481,23.590933 l -18.84499,16.92925 9.68024,23.38276 25.29599,-1.34572 c 4.79304,6.37419 10.49808,11.91195 16.72232,16.58602 l 0.0161,0.031 -1.27632,25.1696 25.61074,9.68395 19.12876,-18.72478 0,-0.0409 c 4.95659,0.90582 13.40511,1.15861 21.30469,0.0495 l 15.77314,18.72851 22.82514,-9.68147 -1.59355,-25.18447 c 6.37419,-4.80172 11.79795,-10.43861 16.47698,-16.67401 l -0.0285,0.0136 25.13862,1.29739 9.66785,-23.37531 -18.73718,-16.88218 -0.0409,-0.0235 c 1.08673,-7.71 1.05575,-15.58851 -0.062,-23.485607 L 510.82431,77.434246 Z M 424.9193,144.96906 c -21.51041,8.90948 -46.18311,-1.30483 -55.09507,-22.82638 -8.91693,-21.5166 1.29738,-46.18559 22.81894,-55.098794 21.52527,-8.911965 46.18806,1.304824 55.10622,22.82142 8.90577,21.525264 -1.3135,46.189304 -22.83009,55.103754 z"
     id="path5"
     inkscape:connector-curvature="0"
     style="fill:#00d500;fill-opacity:1" /></svg>